<?xml version="1.0" encoding="UTF-8"?>
<svg width="52px" height="52px" viewBox="0 0 52 52" version="1.1" xmlns="http://www.w3.org/2000/svg" xmlns:xlink="http://www.w3.org/1999/xlink">
    <!-- Generator: Sketch 47.1 (45422) - http://www.bohemiancoding.com/sketch -->
    <title>credit-locked</title>
    <desc>Created with Sketch.</desc>
    <defs></defs>
    <g id="UI-screens" stroke="none" stroke-width="1" fill="none" fill-rule="evenodd" stroke-linecap="square">
        <g id="homepage" transform="translate(-284.000000, -1653.000000)" stroke-width="2.2">
            <g id="section-3" transform="translate(129.000000, 1426.000000)">
                <g id="row" transform="translate(0.000000, 227.000000)">
                    <g id="item" transform="translate(0.000000, 2.000000)">
                        <g id="credit-locked" transform="translate(157.000000, 0.000000)">
                            <g id="Group" opacity="0.32" stroke="#072F5E">
                                <path d="M0,8.72727273 L48,8.72727273" id="Shape"></path>
                                <path d="M0,17.4545455 L48,17.4545455" id="Shape"></path>
                                <path d="M19.6363636,34.9090909 L3.27272727,34.9090909 C1.46509091,34.9090909 0,33.444 0,31.6363636 L0,3.27272727 C0,1.46509091 1.46509091,0 3.27272727,0 L32.7272727,0 L44.7272727,0 C46.5349091,0 48,1.46509091 48,3.27272727 L48,27.2727273" id="Shape"></path>
                                <path d="M8.72727273,26.1818182 L19.6363636,26.1818182" id="Shape"></path>
                            </g>
                            <rect id="Rectangle-path" stroke="#0A9288" x="26.1818182" y="32.7272727" width="17.4545455" height="15.2727273"></rect>
                            <path d="M30.5454545,32.7272727 L30.5454545,28.3636364 C30.5454545,25.9636364 32.5090909,24 34.9090909,24 L34.9090909,24 C37.3090909,24 39.2727273,25.9636364 39.2727273,28.3636364 L39.2727273,32.7272727" id="Shape" stroke="#0A9288"></path>
                            <path d="M34.9090909,39.2727273 L34.9090909,41.4545455" id="Shape" stroke="#0A9288"></path>
                        </g>
                    </g>
                </g>
            </g>
        </g>
    </g>
</svg>