<?xml version="1.0" encoding="UTF-8"?>
<svg width="202px" height="31px" viewBox="0 0 202 31" version="1.1" xmlns="http://www.w3.org/2000/svg" xmlns:xlink="http://www.w3.org/1999/xlink">
    <!-- Generator: Sketch 47.1 (45422) - http://www.bohemiancoding.com/sketch -->
    <title>logo</title>
    <desc>Created with Sketch.</desc>
    <defs></defs>
    <g id="UI-screens" stroke="none" stroke-width="1" fill="none" fill-rule="evenodd">
        <g id="homepage" transform="translate(-130.000000, -31.000000)">
            <g id="top-menu" transform="translate(130.000000, 24.000000)">
                <g id="logo">
                    <polygon id="Rectangle-2" fill="#0A9288" points="0.501878037 20.751878 13.751878 7.50187804 27.001878 20.751878 13.751878 34.001878"></polygon>
                    <path d="M49.248,21.688 L44.608,25.944 L44.608,31 L43.552,31 L43.552,7.256 L44.608,7.256 L44.608,24.664 L55.872,14.392 L57.28,14.392 L50.08,21.048 L58.016,31 L56.672,31 L49.248,21.688 Z M77.7706675,22.84 L63.2106675,22.84 C63.2320009,24.248007 63.5626643,25.5066611 64.2026675,26.616 C64.8426707,27.7253389 65.7226619,28.5893302 66.8426675,29.208 C67.9626731,29.8266698 69.2159939,30.136 70.6026675,30.136 C71.7333398,30.136 72.7786627,29.9280021 73.7386675,29.512 C74.6986723,29.0959979 75.4879977,28.4826707 76.1066675,27.672 L76.7786675,28.376 C76.0319971,29.250671 75.1253395,29.9226643 74.0586675,30.392 C72.9919955,30.8613357 71.840007,31.096 70.6026675,31.096 C68.981326,31.096 67.5360071,30.7386702 66.2666675,30.024 C64.9973278,29.3093298 64.0000044,28.3120064 63.2746675,27.032 C62.5493305,25.7519936 62.1866675,24.3013414 62.1866675,22.68 C62.1866675,21.0586586 62.5226641,19.6080064 63.1946675,18.328 C63.8666708,17.0479936 64.7999948,16.0506702 65.9946675,15.336 C67.1893401,14.6213298 68.5226601,14.264 69.9946675,14.264 C71.4453414,14.264 72.7626615,14.6159965 73.9466675,15.32 C75.1306734,16.0240035 76.0639974,17.005327 76.7466675,18.264 C77.4293375,19.522673 77.7706675,20.951992 77.7706675,22.552 L77.7706675,22.84 Z M69.9946675,15.224 C68.7573279,15.224 67.6373391,15.5119971 66.6346675,16.088 C65.6319958,16.6640029 64.8320038,17.4693282 64.2346675,18.504 C63.6373311,19.5386718 63.3066678,20.6959936 63.2426675,21.976 L76.7786675,21.976 C76.6933337,20.6959936 76.3466705,19.5386718 75.7386675,18.504 C75.1306644,17.4693282 74.3306724,16.6640029 73.3386675,16.088 C72.3466625,15.5119971 71.232007,15.224 69.9946675,15.224 Z M98.1653349,14.392 L89.4613349,33.496 C88.8426652,34.8826736 88.1386722,35.8639971 87.3493349,36.44 C86.5599976,37.0160029 85.6320069,37.304 84.5653349,37.304 C83.8186645,37.304 83.1253381,37.1813346 82.4853349,36.936 C81.8453317,36.6906654 81.3013372,36.3226691 80.8533349,35.832 L81.4613349,35 C81.9093372,35.4906691 82.3786658,35.8426656 82.8693349,36.056 C83.360004,36.2693344 83.9253317,36.376 84.5653349,36.376 C85.3973391,36.376 86.1173319,36.1413357 86.7253349,35.672 C87.333338,35.2026643 87.9039989,34.3920058 88.4373349,33.24 L89.4933349,30.968 L81.9413349,14.392 L83.0933349,14.392 L90.0693349,29.784 L97.0453349,14.392 L98.1653349,14.392 Z M108.384002,31.096 C107.039996,31.096 105.776008,30.8933354 104.592002,30.488 C103.407996,30.0826646 102.485339,29.5493366 101.824002,28.888 L102.336002,28.056 C103.018672,28.6533363 103.898664,29.1546646 104.976002,29.56 C106.053341,29.9653354 107.199996,30.168 108.416002,30.168 C110.208011,30.168 111.530665,29.864003 112.384002,29.256 C113.23734,28.647997 113.664002,27.8000054 113.664002,26.712 C113.664002,25.9439962 113.434671,25.3360022 112.976002,24.888 C112.517333,24.4399978 111.946672,24.1093344 111.264002,23.896 C110.581332,23.6826656 109.664008,23.4693344 108.512002,23.256 C107.167996,22.9999987 106.096006,22.738668 105.296002,22.472 C104.495998,22.205332 103.818672,21.7733363 103.264002,21.176 C102.709333,20.5786637 102.432002,19.746672 102.432002,18.68 C102.432002,17.421327 102.949331,16.3706709 103.984002,15.528 C105.018674,14.6853291 106.527992,14.264 108.512002,14.264 C109.536008,14.264 110.559997,14.4186651 111.584002,14.728 C112.608008,15.0373349 113.439999,15.4479974 114.080002,15.96 L113.536002,16.792 C112.874666,16.2799974 112.10134,15.890668 111.216002,15.624 C110.330665,15.357332 109.418674,15.224 108.480002,15.224 C106.837328,15.224 105.600007,15.5386635 104.768002,16.168 C103.935998,16.7973365 103.520002,17.6239949 103.520002,18.648 C103.520002,19.4586707 103.754667,20.0986643 104.224002,20.568 C104.693338,21.0373357 105.274666,21.3839989 105.968002,21.608 C106.661339,21.8320011 107.60533,22.0613322 108.800002,22.296 C110.080009,22.5306678 111.114665,22.781332 111.904002,23.048 C112.69334,23.314668 113.36,23.7359971 113.904002,24.312 C114.448005,24.8880029 114.720002,25.6879949 114.720002,26.712 C114.720002,28.0560067 114.176008,29.1226627 113.088002,29.912 C111.999997,30.7013373 110.432013,31.096 108.384002,31.096 Z M129.93067,14.264 C132.000014,14.264 133.631997,14.8666606 134.82667,16.072 C136.021342,17.2773394 136.61867,18.9999888 136.61867,21.24 L136.61867,31 L135.56267,31 L135.56267,21.304 C135.56267,19.3413235 135.066675,17.8426718 134.07467,16.808 C133.082665,15.7733282 131.669346,15.256 129.83467,15.256 C127.765326,15.256 126.133342,15.8693272 124.93867,17.096 C123.743997,18.3226728 123.14667,19.9706563 123.14667,22.04 L123.14667,31 L122.09067,31 L122.09067,7.256 L123.14667,7.256 L123.14667,18.36 C123.701339,17.0799936 124.565331,16.077337 125.73867,15.352 C126.912009,14.626663 128.309328,14.264 129.93067,14.264 Z M151.637337,14.264 C153.621347,14.264 155.141332,14.7759949 156.197337,15.8 C157.253343,16.8240051 157.781337,18.306657 157.781337,20.248 L157.781337,31 L156.757337,31 L156.757337,27.672 C156.224001,28.738672 155.429343,29.575997 154.373337,30.184 C153.317332,30.792003 152.053345,31.096 150.581337,31.096 C148.725328,31.096 147.269343,30.6693376 146.213337,29.816 C145.157332,28.9626624 144.629337,27.832007 144.629337,26.424 C144.629337,25.0799933 145.109333,23.9866709 146.069337,23.144 C147.029342,22.3013291 148.565327,21.88 150.677337,21.88 L156.725337,21.88 L156.725337,20.248 C156.725337,18.6053251 156.293342,17.3573376 155.429337,16.504 C154.565333,15.6506624 153.290679,15.224 151.605337,15.224 C150.431998,15.224 149.333342,15.4266646 148.309337,15.832 C147.285332,16.2373354 146.410674,16.7813299 145.685337,17.464 L145.109337,16.696 C145.920008,15.9279962 146.895998,15.3306688 148.037337,14.904 C149.178676,14.4773312 150.378664,14.264 151.637337,14.264 Z M150.645337,30.2 C153.632019,30.2 155.658665,28.86668 156.725337,26.2 L156.725337,22.744 L150.677337,22.744 C148.949329,22.744 147.685341,23.0693301 146.885337,23.72 C146.085333,24.3706699 145.685337,25.2506611 145.685337,26.36 C145.685337,27.5546726 146.128,28.4933299 147.013337,29.176 C147.898675,29.8586701 149.10933,30.2 150.645337,30.2 Z M173.056005,21.688 L168.416005,25.944 L168.416005,31 L167.360005,31 L167.360005,7.256 L168.416005,7.256 L168.416005,24.664 L179.680005,14.392 L181.088005,14.392 L173.888005,21.048 L181.824005,31 L180.480005,31 L173.056005,21.688 Z M201.578672,22.84 L187.018672,22.84 C187.040006,24.248007 187.370669,25.5066611 188.010672,26.616 C188.650675,27.7253389 189.530667,28.5893302 190.650672,29.208 C191.770678,29.8266698 193.023999,30.136 194.410672,30.136 C195.541345,30.136 196.586667,29.9280021 197.546672,29.512 C198.506677,29.0959979 199.296002,28.4826707 199.914672,27.672 L200.586672,28.376 C199.840002,29.250671 198.933344,29.9226643 197.866672,30.392 C196.8,30.8613357 195.648012,31.096 194.410672,31.096 C192.789331,31.096 191.344012,30.7386702 190.074672,30.024 C188.805333,29.3093298 187.808009,28.3120064 187.082672,27.032 C186.357335,25.7519936 185.994672,24.3013414 185.994672,22.68 C185.994672,21.0586586 186.330669,19.6080064 187.002672,18.328 C187.674676,17.0479936 188.608,16.0506702 189.802672,15.336 C190.997345,14.6213298 192.330665,14.264 193.802672,14.264 C195.253346,14.264 196.570666,14.6159965 197.754672,15.32 C198.938678,16.0240035 199.872002,17.005327 200.554672,18.264 C201.237342,19.522673 201.578672,20.951992 201.578672,22.552 L201.578672,22.84 Z M193.802672,15.224 C192.565333,15.224 191.445344,15.5119971 190.442672,16.088 C189.440001,16.6640029 188.640009,17.4693282 188.042672,18.504 C187.445336,19.5386718 187.114673,20.6959936 187.050672,21.976 L200.586672,21.976 C200.501338,20.6959936 200.154675,19.5386718 199.546672,18.504 C198.938669,17.4693282 198.138677,16.6640029 197.146672,16.088 C196.154667,15.5119971 195.040012,15.224 193.802672,15.224 Z" id="keyshake" fill="#FFFFFF"></path>
                </g>
            </g>
        </g>
    </g>
</svg>