<?xml version="1.0" encoding="UTF-8"?>
<svg width="204px" height="204px" viewBox="0 0 204 204" version="1.1" xmlns="http://www.w3.org/2000/svg" xmlns:xlink="http://www.w3.org/1999/xlink">
    <!-- Generator: Sketch 47.1 (45422) - http://www.bohemiancoding.com/sketch -->
    <title>qr-code</title>
    <desc>Created with Sketch.</desc>
    <defs></defs>
    <g id="UI-screens" stroke="none" stroke-width="1" fill="none" fill-rule="evenodd">
        <g id="web-page-demo-checkout" transform="translate(-1052.000000, -511.000000)" fill-rule="nonzero" fill="#007A78">
            <g id="checkout-sidebar" transform="translate(926.000000, 0.000000)">
                <g id="payment" transform="translate(0.000000, 319.000000)">
                    <g id="qr-code" transform="translate(227.823376, 293.823376) rotate(-315.000000) translate(-227.823376, -293.823376) translate(155.823376, 221.823376)">
                        <rect id="Rectangle-path" x="14.4" y="14.4" width="14.4" height="14.4"></rect>
                        <path d="M100.8,0 L100.8,7.2 L93.6,7.2 L93.6,14.4 L100.8,14.4 L100.8,43.2 L108,43.2 L108,50.4 L100.8,50.4 L100.8,57.6 L108,57.6 L115.2,57.6 L115.2,43.2 L136.8,43.2 L136.8,50.4 L144,50.4 L144,43.2 L144,0 L100.8,0 Z M136.8,36 L108,36 L108,7.2 L136.8,7.2 L136.8,36 Z" id="Shape"></path>
                        <rect id="Rectangle-path" x="115.2" y="14.4" width="14.4" height="14.4"></rect>
                        <rect id="Rectangle-path" x="14.4" y="115.2" width="14.4" height="14.4"></rect>
                        <rect id="Rectangle-path" x="100.8" y="100.8" width="7.2" height="7.2"></rect>
                        <rect id="Rectangle-path" x="64.8" y="136.8" width="7.2" height="7.2"></rect>
                        <rect id="Rectangle-path" x="72" y="108" width="7.2" height="7.2"></rect>
                        <rect id="Rectangle-path" x="72" y="122.4" width="7.2" height="7.2"></rect>
                        <rect id="Rectangle-path" x="136.8" y="86.4" width="7.2" height="7.2"></rect>
                        <rect id="Rectangle-path" x="0" y="86.4" width="7.2" height="7.2"></rect>
                        <rect id="Rectangle-path" x="0" y="50.4" width="7.2" height="7.2"></rect>
                        <polygon id="Shape" points="79.2 7.2 79.2 14.4 64.8 14.4 64.8 21.6 86.4 21.6 86.4 14.4 86.4 7.2"></polygon>
                        <path d="M136.8,57.6 L136.8,64.8 L122.4,64.8 L122.4,72 L100.8,72 L100.8,64.8 L93.6,64.8 L93.6,72 L79.2,72 L79.2,79.2 L100.8,79.2 L100.8,86.4 L86.4,86.4 L79.2,86.4 L79.2,79.2 L72,79.2 L72,86.4 L64.8,86.4 L64.8,79.2 L57.6,79.2 L57.6,86.4 L50.4,86.4 L50.4,93.6 L64.8,93.6 L64.8,100.8 L72,100.8 L72,93.6 L86.4,93.6 L86.4,100.8 L79.2,100.8 L79.2,108 L86.4,108 L86.4,122.4 L93.6,122.4 L93.6,129.6 L100.8,129.6 L100.8,122.4 L122.4,122.4 L122.4,108 L129.6,108 L129.6,100.8 L122.4,100.8 L122.4,86.4 L108,86.4 L108,79.2 L122.4,79.2 L122.4,86.4 L129.6,86.4 L129.6,79.2 L136.8,79.2 L136.8,72 L144,72 L144,64.8 L144,57.6 L136.8,57.6 Z M115.2,93.6 L115.2,115.2 L93.6,115.2 L93.6,93.6 L115.2,93.6 Z" id="Shape"></path>
                        <polygon id="Shape" points="93.6 43.2 86.4 43.2 86.4 50.4 79.2 50.4 79.2 57.6 79.2 64.8 86.4 64.8 86.4 57.6 93.6 57.6 93.6 50.4 100.8 50.4 100.8 43.2"></polygon>
                        <rect id="Rectangle-path" x="79.2" y="136.8" width="14.4" height="7.2"></rect>
                        <rect id="Rectangle-path" x="57.6" y="7.2" width="7.2" height="7.2"></rect>
                        <rect id="Rectangle-path" x="115.2" y="57.6" width="7.2" height="7.2"></rect>
                        <rect id="Rectangle-path" x="122.4" y="50.4" width="7.2" height="7.2"></rect>
                        <rect id="Rectangle-path" x="28.8" y="86.4" width="7.2" height="7.2"></rect>
                        <path d="M43.2,136.8 L43.2,108 L50.4,108 L50.4,100.8 L50.4,93.6 L43.2,93.6 L43.2,100.8 L21.6,100.8 L21.6,93.6 L14.4,93.6 L7.2,93.6 L7.2,100.8 L0,100.8 L0,144 L43.2,144 L57.6,144 L57.6,136.8 L43.2,136.8 Z M36,136.8 L7.2,136.8 L7.2,108 L36,108 L36,136.8 Z" id="Shape"></path>
                        <rect id="Rectangle-path" x="43.2" y="43.2" width="7.2" height="7.2"></rect>
                        <path d="M50.4,0 L43.2,0 L0,0 L0,43.2 L7.2,43.2 L7.2,50.4 L14.4,50.4 L14.4,43.2 L21.6,43.2 L21.6,50.4 L28.8,50.4 L28.8,43.2 L43.2,43.2 L43.2,28.8 L50.4,28.8 L50.4,21.6 L43.2,21.6 L43.2,7.2 L50.4,7.2 L57.6,7.2 L57.6,0 L50.4,0 Z M36,36 L7.2,36 L7.2,7.2 L36,7.2 L36,36 Z" id="Shape"></path>
                        <rect id="Rectangle-path" x="86.4" y="21.6" width="7.2" height="7.2"></rect>
                        <rect id="Rectangle-path" x="72" y="0" width="7.2" height="7.2"></rect>
                        <path d="M86.4,43.2 L86.4,36 L79.2,36 L79.2,28.8 L72,28.8 L72,36 L57.6,36 L57.6,28.8 L50.4,28.8 L50.4,36 L50.4,43.2 L57.6,43.2 L57.6,57.6 L36,57.6 L36,50.4 L28.8,50.4 L28.8,57.6 L7.2,57.6 L7.2,64.8 L21.6,64.8 L21.6,72 L0,72 L0,79.2 L21.6,79.2 L21.6,86.4 L28.8,86.4 L28.8,79.2 L36,79.2 L36,86.4 L43.2,86.4 L43.2,79.2 L57.6,79.2 L57.6,72 L50.4,72 L50.4,64.8 L57.6,64.8 L64.8,64.8 L64.8,72 L72,72 L79.2,72 L79.2,64.8 L72,64.8 L72,57.6 L64.8,57.6 L64.8,43.2 L86.4,43.2 Z M43.2,72 L28.8,72 L28.8,64.8 L43.2,64.8 L43.2,72 Z" id="Shape"></path>
                        <polygon id="Shape" points="64.8 115.2 64.8 108 64.8 100.8 57.6 100.8 57.6 108 50.4 108 50.4 115.2 57.6 115.2 57.6 122.4 50.4 122.4 50.4 129.6 64.8 129.6 64.8 122.4 72 122.4 72 115.2"></polygon>
                        <polygon id="Shape" points="129.6 129.6 129.6 122.4 122.4 122.4 122.4 129.6 100.8 129.6 100.8 136.8 115.2 136.8 115.2 144 122.4 144 122.4 136.8 136.8 136.8 136.8 144 144 144 144 136.8 144 129.6"></polygon>
                        <polygon id="Shape" points="136.8 100.8 136.8 108 129.6 108 129.6 115.2 144 115.2 144 108 144 100.8"></polygon>
                    </g>
                </g>
            </g>
        </g>
    </g>
</svg>