<?xml version="1.0" encoding="UTF-8"?>
<svg width="13px" height="12px" viewBox="0 0 13 12" version="1.1" xmlns="http://www.w3.org/2000/svg" xmlns:xlink="http://www.w3.org/1999/xlink">
    <!-- Generator: Sketch 47.1 (45422) - http://www.bohemiancoding.com/sketch -->
    <title>rating-on</title>
    <desc>Created with Sketch.</desc>
    <defs></defs>
    <g id="UI-screens" stroke="none" stroke-width="1" fill="none" fill-rule="evenodd">
        <g id="web-page-demo" transform="translate(-739.000000, -576.000000)" fill="#F6DA56">
            <g id="products-added" transform="translate(131.000000, 323.000000)">
                <g id="item" transform="translate(584.000000, 0.000000)">
                    <g id="info" transform="translate(24.000000, 220.000000)">
                        <g id="Rating" transform="translate(0.000000, 33.000000)">
                            <path d="M12.5492958,4.62 C12.5492958,4.38 12.1295385,4.35 11.9558458,4.35 L7.90301672,4.365 L6.64374482,0.48 C6.58584726,0.315 6.47005215,0 6.26741069,0 C6.06476924,0 5.94897412,0.315 5.89107656,0.48 L4.64627906,4.365 L0.578975584,4.35 C0.405282909,4.35 0,4.38 0,4.62 C0,4.8 0.217115844,4.98 0.34738535,5.07 L3.63307179,7.47 L2.37379989,11.355 C2.33037672,11.475 2.30142794,11.595 2.30142794,11.715 C2.30142794,11.865 2.37379989,12 2.51854379,12 C2.69223646,12 2.85145475,11.895 2.98172426,11.79 L6.26741069,9.405 L9.55309713,11.79 C9.68336664,11.88 9.84258492,12 10.0162776,12 C10.1754959,12 10.2189191,11.85 10.2189191,11.7 C10.2189191,11.58 10.2044447,11.46 10.1610215,11.355 L8.91622399,7.47 L12.2019104,5.07 C12.3321799,4.98 12.5492958,4.8 12.5492958,4.62 L12.5492958,4.62 Z" id="rating-on"></path>
                        </g>
                    </g>
                </g>
            </g>
        </g>
    </g>
</svg>